<?xml version="1.0" standalone="no"?><svg xmlns="http://www.w3.org/2000/svg" viewBox="0 0 1440 320"><path fill="#b494e8" fill-opacity="1" d="M0,192L34.3,197.3C68.6,203,137,213,206,192C274.3,171,343,117,411,128C480,139,549,213,617,229.3C685.7,245,754,203,823,181.3C891.4,160,960,160,1029,181.3C1097.1,203,1166,245,1234,224C1302.9,203,1371,117,1406,74.7L1440,32L1440,320L1405.7,320C1371.4,320,1303,320,1234,320C1165.7,320,1097,320,1029,320C960,320,891,320,823,320C754.3,320,686,320,617,320C548.6,320,480,320,411,320C342.9,320,274,320,206,320C137.1,320,69,320,34,320L0,320Z"></path></svg>